<svg width="2880" height="221" viewBox="0 0 2880 221" fill="none" xmlns="http://www.w3.org/2000/svg">
<path d="M2880 34.3918L2831.58 24.2698C2755.24 8.31179 2676.23 10.4494 2600.87 30.5115L2563.67 40.4135C2496.51 58.2938 2425.64 56.7233 2359.33 35.8849V35.8849C2292.04 14.7369 2220.08 13.4398 2152.07 32.1491L2102.12 45.8878C2049.41 60.389 1994.67 66.1463 1940.09 62.9305L1852.53 57.7712C1821.25 55.9278 1790.2 51.1471 1759.81 43.492L1725.32 34.8038C1643.76 14.2596 1558.33 14.6223 1476.95 35.8584L1440 45.5V154.514L2880 159V34.3918Z" fill="url(#paint0_linear_1358_180)" fill-opacity="0.5"/>
<path d="M0 34.3918L48.4195 24.2698C124.756 8.31179 203.768 10.4494 279.13 30.5115L316.327 40.4135C383.493 58.2938 454.358 56.7233 520.666 35.8849V35.8849C587.959 14.7369 659.923 13.4398 727.934 32.1491L777.877 45.8878C830.591 60.389 885.327 66.1463 939.905 62.9305L1027.47 57.7712C1058.75 55.9278 1089.8 51.1471 1120.19 43.492L1154.68 34.8038C1236.24 14.2596 1321.67 14.6223 1403.05 35.8584L1440 45.5V154.514L0 159V34.3918Z" fill="url(#paint1_linear_1358_180)" fill-opacity="0.5"/>
<path d="M2880 108.5L2782 83.6774C2722.28 68.5487 2659.45 71.0046 2601.09 90.7495L2571.23 100.85C2518.48 118.697 2461.09 117.154 2409.37 96.4993V96.4993C2356.9 75.543 2298.62 74.2705 2245.28 92.9167L2226.86 99.3592C2172.95 118.204 2114.19 117.815 2060.54 98.2586V98.2586C2013.61 81.1544 1962.61 78.6569 1914.24 91.0948L1886.25 98.2918C1827.56 113.385 1765.61 109.734 1709.1 87.8515V87.8515C1658.7 68.3383 1603.86 63.2766 1550.74 73.2359L1440 94V220H2880V108.5Z" fill="url(#paint2_linear_1358_180)"/>
<path d="M0 108.5L97.9977 83.6774C157.724 68.5487 220.551 71.0046 278.914 90.7495L308.771 100.85C361.523 118.697 418.909 117.154 470.626 96.4993V96.4993C523.098 75.543 581.378 74.2705 634.715 92.9167L653.144 99.3592C707.048 118.204 765.813 117.815 819.463 98.2586V98.2586C866.386 81.1544 917.388 78.6569 965.758 91.0948L993.746 98.2918C1052.44 113.385 1114.39 109.734 1170.9 87.8515V87.8515C1221.3 68.3383 1276.14 63.2766 1329.26 73.2359L1440 94V220H0V108.5Z" fill="url(#paint3_linear_1358_180)"/>
<path d="M0 72.002L98.0261 92.3944C159.266 105.134 222.553 104.317 283.444 90.0013V90.0013C334.059 78.101 386.417 75.5084 437.96 82.3501L476.714 87.4942C521.366 93.4213 566.615 93.2873 611.232 87.0958L637.298 83.4786C692.011 75.886 747.63 77.9234 801.641 89.4986V89.4986C867.779 103.673 936.187 103.516 1002.26 89.0372L1004.18 88.6172C1054.4 77.6111 1106.07 74.7016 1157.21 79.9988L1208.13 85.2728C1242.29 88.8103 1276.71 88.82 1310.87 85.302L1440 72.002V220.002H0V72.002Z" fill="url(#paint4_linear_1358_180)" fill-opacity="0.8"/>
<path d="M0 72.002L98.0261 92.3944C159.266 105.134 222.553 104.317 283.444 90.0013V90.0013C334.059 78.101 386.417 75.5084 437.96 82.3501L476.714 87.4942C521.366 93.4213 566.615 93.2873 611.232 87.0958L637.298 83.4786C692.011 75.886 747.63 77.9234 801.641 89.4986V89.4986C867.779 103.673 936.187 103.516 1002.26 89.0372L1004.18 88.6172C1054.4 77.6111 1106.07 74.7016 1157.21 79.9988L1208.13 85.2728C1242.29 88.8103 1276.71 88.82 1310.87 85.302L1440 72.002V220.002H0V72.002Z" fill="url(#paint5_linear_1358_180)"/>
<path d="M2879 72L2780.97 92.3925C2719.73 105.132 2656.45 104.316 2595.56 89.9993V89.9993C2544.94 78.0991 2492.58 75.5065 2441.04 82.3482L2402.29 87.4923C2357.63 93.4193 2312.38 93.2853 2267.77 87.0938L2241.7 83.4766C2186.99 75.8841 2131.37 77.9215 2077.36 89.4966V89.4966C2011.22 103.671 1942.81 103.514 1876.74 89.0352L1874.82 88.6153C1824.6 77.6091 1772.93 74.6996 1721.79 79.9968L1670.87 85.2709C1636.71 88.8083 1602.29 88.8181 1568.13 85.3001L1439 72V220H2879V72Z" fill="url(#paint6_linear_1358_180)" fill-opacity="0.8"/>
<path d="M2879 72L2780.97 92.3925C2719.73 105.132 2656.45 104.316 2595.56 89.9993V89.9993C2544.94 78.0991 2492.58 75.5065 2441.04 82.3482L2402.29 87.4923C2357.63 93.4193 2312.38 93.2853 2267.77 87.0938L2241.7 83.4766C2186.99 75.8841 2131.37 77.9215 2077.36 89.4966V89.4966C2011.22 103.671 1942.81 103.514 1876.74 89.0352L1874.82 88.6153C1824.6 77.6091 1772.93 74.6996 1721.79 79.9968L1670.87 85.2709C1636.71 88.8083 1602.29 88.8181 1568.13 85.3001L1439 72V220H2879V72Z" fill="url(#paint7_linear_1358_180)"/>
<defs>
<linearGradient id="paint0_linear_1358_180" x1="2955.55" y1="78.2539" x2="1131.29" y2="78.2539" gradientUnits="userSpaceOnUse">
<stop stop-color="#0052D4"/>
<stop offset="0.5" stop-color="#4364F7"/>
<stop offset="1" stop-color="#6FB1FC"/>
</linearGradient>
<linearGradient id="paint1_linear_1358_180" x1="-75.5525" y1="78.2539" x2="1748.71" y2="78.2539" gradientUnits="userSpaceOnUse">
<stop stop-color="#0052D4"/>
<stop offset="0.5" stop-color="#4364F7"/>
<stop offset="1" stop-color="#6FB1FC"/>
</linearGradient>
<linearGradient id="paint2_linear_1358_180" x1="2880" y1="139" x2="1440" y2="139" gradientUnits="userSpaceOnUse">
<stop stop-color="#0052D4"/>
<stop offset="0.5" stop-color="#4364F7"/>
<stop offset="1" stop-color="#6FB1FC"/>
</linearGradient>
<linearGradient id="paint3_linear_1358_180" x1="0" y1="139" x2="1440" y2="139" gradientUnits="userSpaceOnUse">
<stop stop-color="#0052D4"/>
<stop offset="0.5" stop-color="#4364F7"/>
<stop offset="1" stop-color="#6FB1FC"/>
</linearGradient>
<linearGradient id="paint4_linear_1358_180" x1="0" y1="146.002" x2="1440" y2="146.002" gradientUnits="userSpaceOnUse">
<stop stop-color="#0052D4"/>
<stop offset="0.5" stop-color="#4364F7"/>
<stop offset="1" stop-color="#6FB1FC"/>
</linearGradient>
<linearGradient id="paint5_linear_1358_180" x1="0" y1="146" x2="1440" y2="146" gradientUnits="userSpaceOnUse">
<stop stop-color="#004E84"/>
<stop offset="1" stop-color="#01ADEB"/>
</linearGradient>
<linearGradient id="paint6_linear_1358_180" x1="2880" y1="145.5" x2="1440" y2="145.5" gradientUnits="userSpaceOnUse">
<stop stop-color="#0052D4"/>
<stop offset="0.5" stop-color="#4364F7"/>
<stop offset="1" stop-color="#6FB1FC"/>
</linearGradient>
<linearGradient id="paint7_linear_1358_180" x1="2879" y1="145.998" x2="1439" y2="145.998" gradientUnits="userSpaceOnUse">
<stop stop-color="#004E84"/>
<stop offset="1" stop-color="#01ADEB"/>
</linearGradient>
</defs>
</svg>
