<svg width="16" height="16" viewBox="0 0 16 16" fill="none" xmlns="http://www.w3.org/2000/svg">
<path fill-rule="evenodd" clip-rule="evenodd" d="M8.00023 13.272C4.93419 11.5257 3.22415 9.79004 2.39724 8.2841C1.5509 6.74277 1.62474 5.44459 2.09438 4.52322C3.0597 2.6294 5.80476 2.02382 7.47727 4.13914L8.00019 4.8005L8.52315 4.13917C10.1959 2.02376 12.9412 2.62945 13.9065 4.52322C14.3761 5.44457 14.4499 6.74275 13.6035 8.28408C12.7765 9.79003 11.0664 11.5257 8.00023 13.272ZM8.00025 2.73775C5.64745 0.502007 2.17652 1.42603 0.906464 3.91772C0.209436 5.28519 0.199915 7.05261 1.22851 8.92585C2.24798 10.7825 4.28058 12.7422 7.67773 14.6199L8.00022 14.7981L8.32271 14.6199C11.72 12.7422 13.7527 10.7825 14.7722 8.92586C15.8009 7.05263 15.7914 5.28521 15.0944 3.91772C13.8243 1.42599 10.3533 0.502041 8.00025 2.73775Z" fill="#13395B"/>
</svg>
