<svg width="41" height="32" viewBox="0 0 41 32" fill="none" xmlns="http://www.w3.org/2000/svg">
<path opacity="0.2" d="M18.5614 22.9212C18.5658 24.0145 18.3392 25.096 17.8973 26.0914C17.4553 27.0868 16.8084 27.9726 16.0008 28.6881C14.2679 30.3069 11.9906 31.1768 9.6454 31.1155C6.66826 31.1155 4.31763 30.0547 2.59348 27.9332C0.871139 25.8236 -0.0490785 23.1483 0.00215141 20.3994C0.00215141 13.8181 1.76556 8.86544 5.29237 5.54156C8.81917 2.21767 12.7232 0.37748 17.0046 0.0209753V7.2402C14.8471 7.47542 12.8046 8.35411 11.1305 9.76718C10.269 10.427 9.55933 11.2722 9.05144 12.2433C8.54355 13.2143 8.24983 14.2876 8.19097 15.3874C8.90201 15.0328 9.68417 14.8533 10.475 14.8631C13.0322 14.8631 15.0193 15.6058 16.4361 17.0913C17.1518 17.8691 17.7085 18.7855 18.0735 19.7866C18.4385 20.7878 18.6044 21.8535 18.5614 22.9212ZM40.3266 22.9212C40.332 24.0147 40.1059 25.0965 39.6638 26.092C39.2218 27.0876 38.5743 27.9733 37.766 28.6881C36.0331 30.3069 33.7557 31.1768 31.4106 31.1155C28.4402 31.1155 26.1084 30.0547 24.415 27.9332C22.7133 25.8136 21.8055 23.1425 21.8544 20.3994C21.8544 13.8181 23.599 8.86544 27.0882 5.54156C30.5775 2.21767 34.4764 0.370485 38.7851 0V7.21922C36.6323 7.46355 34.597 8.34951 32.9315 9.76718C32.0636 10.4231 31.3475 11.2668 30.8341 12.2381C30.3207 13.2095 30.0227 14.2847 29.9612 15.3874C30.6704 15.0327 31.451 14.8531 32.2402 14.8631C34.794 14.8631 36.781 15.6058 38.2013 17.0913C38.917 17.8688 39.4734 18.7853 39.8375 19.7866C40.2017 20.7879 40.3662 21.8537 40.3215 22.9212H40.3266Z" fill="#CEEFF0"/>
</svg>
