<svg width="41" height="32" viewBox="0 0 41 32" fill="none" xmlns="http://www.w3.org/2000/svg">
<path opacity="0.2" d="M18.5633 22.9212C18.5676 24.0145 18.3411 25.096 17.8991 26.0914C17.4571 27.0868 16.8102 27.9726 16.0026 28.6881C14.2698 30.3069 11.9924 31.1768 9.64723 31.1155C6.6701 31.1155 4.31946 30.0547 2.59531 27.9332C0.87297 25.8236 -0.0472474 23.1483 0.00398247 20.3994C0.00398247 13.8181 1.76739 8.86544 5.2942 5.54156C8.821 2.21767 12.7251 0.37748 17.0064 0.0209753V7.2402C14.8489 7.47542 12.8064 8.35411 11.1324 9.76718C10.2709 10.427 9.56116 11.2722 9.05327 12.2433C8.54539 13.2143 8.25166 14.2876 8.1928 15.3874C8.90384 15.0328 9.686 14.8533 10.4769 14.8631C13.0341 14.8631 15.0211 15.6058 16.438 17.0913C17.1537 17.8691 17.7104 18.7855 18.0753 19.7866C18.4403 20.7878 18.6062 21.8535 18.5633 22.9212ZM40.3284 22.9212C40.3338 24.0147 40.1077 25.0965 39.6657 26.092C39.2236 27.0876 38.5762 27.9733 37.7678 28.6881C36.0349 30.3069 33.7575 31.1768 31.4124 31.1155C28.4421 31.1155 26.1102 30.0547 24.4168 27.9332C22.7152 25.8136 21.8073 23.1425 21.8562 20.3994C21.8562 13.8181 23.6008 8.86544 27.0901 5.54156C30.5793 2.21767 34.4783 0.370485 38.7869 0V7.21922C36.6342 7.46355 34.5988 8.34951 32.9334 9.76718C32.0654 10.4231 31.3493 11.2668 30.8359 12.2381C30.3226 13.2095 30.0245 14.2847 29.9631 15.3874C30.6723 15.0327 31.4528 14.8531 32.242 14.8631C34.7958 14.8631 36.7828 15.6058 38.2031 17.0913C38.9189 17.8688 39.4752 18.7853 39.8394 19.7866C40.2035 20.7879 40.3681 21.8537 40.3233 22.9212H40.3284Z" fill="#CEEFF0"/>
</svg>
