<svg width="17" height="16" viewBox="0 0 17 16" fill="none" xmlns="http://www.w3.org/2000/svg">
<path fill-rule="evenodd" clip-rule="evenodd" d="M2.59538 2.00518C2.53027 2.00028 2.43992 1.99984 2.27047 1.99984H1.16764C0.799453 1.99984 0.500977 1.70136 0.500977 1.33317C0.500977 0.964984 0.799453 0.666507 1.16764 0.666507H2.27047C2.27676 0.666507 2.28304 0.666506 2.28933 0.666505C2.43243 0.666488 2.57413 0.66647 2.69556 0.67562C2.83068 0.685801 2.98767 0.709715 3.15008 0.782161C3.37865 0.884118 3.5739 1.04835 3.71352 1.25606C3.81272 1.40366 3.86318 1.55423 3.89636 1.68561C3.92618 1.80368 3.95044 1.94328 3.97494 2.08427C3.97602 2.09046 3.9771 2.09666 3.97817 2.10285L4.13702 3.01623L12.813 3.27305C13.153 3.2831 13.4468 3.29179 13.6888 3.31844C13.9445 3.34661 14.1981 3.39957 14.4414 3.52916C14.8099 3.72552 15.1078 4.03233 15.2932 4.40655C15.4155 4.65352 15.4609 4.90854 15.4815 5.16503C15.501 5.40768 15.501 5.70161 15.501 6.04174V6.09091C15.501 6.41056 15.501 6.68783 15.4831 6.91776C15.4641 7.1616 15.4222 7.40379 15.3105 7.6411C15.1405 8.00231 14.8663 8.30436 14.5231 8.50839C14.2977 8.64244 14.0606 8.70745 13.8198 8.74984C13.5926 8.7898 13.3167 8.8165 12.9985 8.84728L6.50924 9.47527C6.18311 9.50685 5.90054 9.5342 5.66479 9.53835C5.41501 9.54274 5.16458 9.52334 4.91317 9.43098C4.53612 9.29247 4.20951 9.04364 3.97589 8.71688C3.8201 8.499 3.73493 8.26271 3.67286 8.02072C3.61428 7.79233 3.56565 7.51264 3.50952 7.18984L2.66456 2.3313C2.63553 2.16437 2.61961 2.07542 2.60362 2.01212C2.60305 2.00987 2.60251 2.00773 2.60198 2.00571C2.59989 2.00553 2.59769 2.00536 2.59538 2.00518ZM4.37021 4.35705L4.81894 6.93724C4.88047 7.29107 4.92048 7.51826 4.96439 7.68946C5.00627 7.85275 5.0394 7.91187 5.0605 7.94139C5.13838 8.05031 5.24725 8.13326 5.37293 8.17943C5.40699 8.19194 5.47279 8.20819 5.64134 8.20522C5.81806 8.20211 6.04771 8.18037 6.40519 8.14578L12.8461 7.52247C13.195 7.4887 13.4188 7.46657 13.5887 7.43668C13.7505 7.40821 13.8109 7.38065 13.8417 7.36234C13.9561 7.29433 14.0475 7.19364 14.1042 7.07324C14.1194 7.04081 14.141 6.97804 14.1538 6.81425C14.1672 6.6423 14.1676 6.41742 14.1676 6.06684C14.1676 5.69451 14.1671 5.4546 14.1525 5.27171C14.1384 5.09671 14.1146 5.0311 14.0984 4.99838C14.0366 4.87364 13.9373 4.77136 13.8144 4.70591C13.7822 4.68874 13.7173 4.66298 13.5428 4.64376C13.3604 4.62367 13.1207 4.61607 12.7485 4.60506L4.37021 4.35705Z" fill="white"/>
<path fill-rule="evenodd" clip-rule="evenodd" d="M6.16764 11.6665C5.79945 11.6665 5.50098 11.965 5.50098 12.3332C5.50098 12.7014 5.79945 12.9998 6.16764 12.9998C6.53583 12.9998 6.83431 12.7014 6.83431 12.3332C6.83431 11.965 6.53583 11.6665 6.16764 11.6665ZM4.16764 12.3332C4.16764 11.2286 5.06307 10.3332 6.16764 10.3332C7.27221 10.3332 8.16764 11.2286 8.16764 12.3332C8.16764 13.4377 7.27221 14.3332 6.16764 14.3332C5.06307 14.3332 4.16764 13.4377 4.16764 12.3332Z" fill="white"/>
<path fill-rule="evenodd" clip-rule="evenodd" d="M12.501 11.6665C12.1328 11.6665 11.8343 11.965 11.8343 12.3332C11.8343 12.7014 12.1328 12.9998 12.501 12.9998C12.8692 12.9998 13.1676 12.7014 13.1676 12.3332C13.1676 11.965 12.8692 11.6665 12.501 11.6665ZM10.501 12.3332C10.501 11.2286 11.3964 10.3332 12.501 10.3332C13.6055 10.3332 14.501 11.2286 14.501 12.3332C14.501 13.4377 13.6055 14.3332 12.501 14.3332C11.3964 14.3332 10.501 13.4377 10.501 12.3332Z" fill="white"/>
</svg>
