<svg width="161" height="31" viewBox="0 0 161 31" fill="none" xmlns="http://www.w3.org/2000/svg">
<circle cx="15.0467" cy="15.0467" r="14.5467" fill="white" stroke="#1C7F71"/>
<path fill-rule="evenodd" clip-rule="evenodd" d="M13.4362 11.9424H15.7647V13.1023C16.1001 12.4352 16.9603 11.8359 18.2524 11.8359C20.7295 11.8359 21.3176 13.1637 21.3176 15.6V20.1122H18.8098V16.1549C18.8098 14.7675 18.4744 13.985 17.6205 13.985C16.4362 13.985 15.944 14.8283 15.944 16.1543V20.1122H13.4362V11.9424V11.9424ZM9.13599 20.0056H11.6438V11.8359H9.13599V20.0056V20.0056ZM12.003 9.17196C12.0031 9.38216 11.9614 9.59028 11.8804 9.78423C11.7993 9.97817 11.6805 10.1541 11.5309 10.3017C11.2277 10.603 10.8173 10.7717 10.3899 10.7707C9.96317 10.7704 9.55373 10.6021 9.25009 10.3023C9.10101 10.1542 8.98263 9.9781 8.90172 9.78413C8.82082 9.59016 8.77899 9.38213 8.77863 9.17196C8.77863 8.74751 8.9479 8.34125 9.25072 8.04157C9.55409 7.74136 9.96371 7.57305 10.3905 7.57324C10.8181 7.57324 11.2281 7.74189 11.5309 8.04157C11.8331 8.34125 12.003 8.74751 12.003 9.17196Z" fill="#1C7F71"/>
<circle cx="58.6821" cy="15.0467" r="14.5467" fill="white" stroke="#1C7F71"/>
<path d="M59.6171 21.0633V15.5823H61.4662L61.741 13.4363H59.6171V12.0694C59.6171 11.4501 59.7896 11.0262 60.6784 11.0262H61.8045V9.11288C61.2566 9.05415 60.7058 9.0258 60.1548 9.02795C58.5203 9.02795 57.3982 10.0257 57.3982 11.8574V13.4323H55.5612V15.5783H57.4022V21.0633H59.6171Z" fill="#1C7F71"/>
<circle cx="102.318" cy="15.0467" r="14.5467" fill="white" stroke="#1C7F71"/>
<g clip-path="url(#clip0_1311_1708)">
<path d="M109.131 10.9135C108.642 11.13 108.117 11.2763 107.565 11.3424C108.135 11.0018 108.561 10.4656 108.764 9.83392C108.229 10.1517 107.643 10.3753 107.033 10.4951C106.622 10.0568 106.078 9.76623 105.486 9.6686C104.893 9.57097 104.285 9.67171 103.755 9.95519C103.226 10.2387 102.805 10.689 102.558 11.2364C102.31 11.7837 102.251 12.3973 102.388 12.982C101.304 12.9276 100.244 12.6459 99.2757 12.1552C98.3077 11.6644 97.4538 10.9756 96.7692 10.1335C96.5352 10.5373 96.4006 11.0054 96.4006 11.5039C96.4003 11.9527 96.5109 12.3947 96.7224 12.7905C96.9339 13.1864 97.2398 13.5239 97.613 13.7732C97.1802 13.7594 96.7569 13.6424 96.3784 13.432V13.4671C96.3783 14.0966 96.5961 14.7067 96.9946 15.1939C97.3932 15.6811 97.9481 16.0154 98.5651 16.1401C98.1635 16.2488 97.7425 16.2648 97.3339 16.1869C97.508 16.7285 97.8471 17.2022 98.3037 17.5415C98.7604 17.8808 99.3117 18.0688 99.8805 18.0793C98.9149 18.8373 97.7224 19.2485 96.4948 19.2467C96.2774 19.2467 96.0601 19.234 95.8441 19.2086C97.0902 20.0098 98.5407 20.435 100.022 20.4333C105.037 20.4333 107.778 16.2799 107.778 12.6778C107.778 12.5607 107.775 12.4425 107.77 12.3255C108.303 11.9399 108.764 11.4623 109.129 10.9153L109.131 10.9135V10.9135Z" fill="#1C7F71"/>
</g>
<circle cx="145.953" cy="15.0467" r="14.5467" fill="white" stroke="#1C7F71"/>
<path d="M151.149 11.6688C149.404 8.97794 145.84 8.17795 143.077 9.85065C140.386 11.5233 139.513 15.1596 141.258 17.8505L141.404 18.0687L140.822 20.2504L143.004 19.6686L143.222 19.8141C144.167 20.3232 145.186 20.6141 146.204 20.6141C147.295 20.6141 148.386 20.3232 149.331 19.7414C152.022 17.9959 152.822 14.4324 151.149 11.6688V11.6688ZM149.622 17.2687C149.331 17.705 148.967 17.9959 148.458 18.0687C148.167 18.0687 147.804 18.2141 146.349 17.6323C145.113 17.0505 144.095 16.1051 143.367 15.0142C142.931 14.5051 142.713 13.8506 142.64 13.196C142.64 12.6142 142.858 12.1052 143.222 11.7415C143.367 11.5961 143.513 11.5233 143.658 11.5233H144.022C144.167 11.5233 144.313 11.5233 144.386 11.8142C144.531 12.1779 144.895 13.0506 144.895 13.1233C144.967 13.196 144.967 13.3415 144.895 13.4142C144.967 13.5597 144.895 13.7051 144.822 13.7778C144.749 13.8506 144.676 13.996 144.604 14.0687C144.458 14.1415 144.386 14.2869 144.458 14.4324C144.749 14.8687 145.113 15.3051 145.476 15.6687C145.913 16.0323 146.349 16.3233 146.858 16.5414C147.004 16.6142 147.149 16.6142 147.222 16.4687C147.295 16.3233 147.658 15.9596 147.804 15.8142C147.949 15.6687 148.022 15.6687 148.167 15.7414L149.331 16.3233C149.476 16.396 149.622 16.4687 149.695 16.5414C149.767 16.7596 149.767 17.0505 149.622 17.2687V17.2687Z" fill="#1C7F71"/>
<defs>
<clipPath id="clip0_1311_1708">
<rect width="14.0436" height="14.0436" fill="white" transform="translate(95.2959 8.0249)"/>
</clipPath>
</defs>
</svg>
