<svg width="95" height="22" viewBox="0 0 95 22" fill="none" xmlns="http://www.w3.org/2000/svg">
<g clip-path="url(#clip0_1317_1086)">
<path fill-rule="evenodd" clip-rule="evenodd" d="M83.041 18.6477C78.8102 18.6477 75.2361 15.0419 75.2361 10.7739C75.2361 6.50563 78.8102 2.89981 83.041 2.89981C87.2718 2.89981 90.8459 6.50563 90.8459 10.7739H90.8454C90.8454 12.3929 90.3303 13.916 89.4609 15.1838L87.0832 12.8063L85.1063 14.7832L87.506 17.1829C86.231 18.1006 84.6864 18.6477 83.041 18.6477V18.6477ZM94.1085 19.8313L91.7327 17.4556C93.2135 15.6359 94.0908 13.323 94.0908 10.7739C94.0908 4.76908 89.237 0.065918 83.041 0.065918C76.8445 0.065918 71.9907 4.76908 71.9907 10.7739C71.9907 16.7784 76.8445 21.4818 83.041 21.4818C85.5613 21.4818 87.8595 20.7034 89.6993 19.3759L92.1316 21.8082L94.1085 19.8313Z" fill="#13395B"/>
<path fill-rule="evenodd" clip-rule="evenodd" d="M0.189087 21.037V0.508789H3.22944V18.2028H15.6285V21.037H0.189087Z" fill="#13395B"/>
<path fill-rule="evenodd" clip-rule="evenodd" d="M51.8745 11.4399H58.2789C61.6193 11.4399 62.8043 9.25947 62.8043 7.39165C62.8043 5.52406 61.6193 3.34365 58.2789 3.34365H51.8745V11.4399ZM61.9081 21.037L57.4334 14.2747H51.8745V21.037H48.8341V0.508789H58.5862C62.9276 0.508789 65.8447 3.2745 65.8447 7.39165C65.8447 10.1622 64.0013 12.5237 61.1481 13.4068L60.5442 13.5942L65.7613 21.037H61.9081Z" fill="#13395B"/>
<path fill-rule="evenodd" clip-rule="evenodd" d="M25.7151 21.037L32.1009 5.35145L38.4299 21.037H41.8206L33.7599 2.00672C33.3753 1.09868 32.4849 0.508789 31.4987 0.508789H25.0109V1.03969C25.0109 2.19892 25.9506 3.13864 27.1101 3.13864H30.1729L22.3513 21.037H25.7151Z" fill="#13395B"/>
</g>
<defs>
<clipPath id="clip0_1317_1086">
<rect width="95" height="22" fill="white"/>
</clipPath>
</defs>
</svg>
